<svg xmlns="http://www.w3.org/2000/svg" viewBox="0 0 64 64">
  <defs>
    <linearGradient id="star" x1="10" y1="8" x2="54" y2="58" gradientUnits="userSpaceOnUse">
      <stop stop-color="#fffdf9"/>
      <stop offset="0.28" stop-color="#d8d5d0"/>
      <stop offset="0.54" stop-color="#ff9fc0"/>
      <stop offset="0.78" stop-color="#ffd3bb"/>
      <stop offset="1" stop-color="#bdb9b3"/>
    </linearGradient>
    <radialGradient id="shine" cx="0" cy="0" r="1" gradientTransform="translate(23 17) rotate(51) scale(32)">
      <stop stop-color="#ffffff"/>
      <stop offset="0.34" stop-color="#ffffff" stop-opacity="0.65"/>
      <stop offset="1" stop-color="#ffffff" stop-opacity="0"/>
    </radialGradient>
    <filter id="soft" x="-20%" y="-20%" width="140%" height="140%">
      <feDropShadow dx="0" dy="3" stdDeviation="2" flood-color="#a84873" flood-opacity="0.24"/>
      <feDropShadow dx="0" dy="0" stdDeviation="1.6" flood-color="#ffffff" flood-opacity="0.82"/>
    </filter>
  </defs>
  <rect width="64" height="64" rx="16" fill="#fff9f2"/>
  <path filter="url(#soft)" d="M32 5.5 38.7 24 57.2 31.1 38.7 38.2 32 58.5 25.3 38.2 6.8 31.1 25.3 24 32 5.5Z" fill="url(#star)"/>
  <path d="M32 5.5 38.7 24 57.2 31.1 38.7 38.2 32 58.5 25.3 38.2 6.8 31.1 25.3 24 32 5.5Z" fill="url(#shine)" opacity="0.78"/>
  <text x="32" y="39" text-anchor="middle" font-family="Georgia, 'Times New Roman', serif" font-size="19" font-weight="700" letter-spacing="-1" fill="#332a30">AB</text>
  <path d="M48.2 11.8 49.5 15.5 53.2 16.8 49.5 18.2 48.2 21.8 46.8 18.2 43.2 16.8 46.8 15.5 48.2 11.8Z" fill="#fffdf9" opacity="0.92"/>
</svg>
